<?xml version="1.0" encoding="iso-8859-1"?>
<!-- Uploaded to: SVG Repo, www.svgrepo.com, Generator: SVG Repo Mixer Tools -->
<svg fill="#000000" height="800px" width="800px" version="1.1" id="Layer_1" xmlns="http://www.w3.org/2000/svg" xmlns:xlink="http://www.w3.org/1999/xlink" 
	 viewBox="0 0 512 512" xml:space="preserve">
<g>
	<g>
		<path d="M466.138,181.53c0.12-13.212-5.011-25.98-14.623-35.592c-9.611-9.611-22.361-14.69-35.591-14.622
			c-9.257-9.43-21.916-14.83-35.513-14.83c-2.554,0-5.075,0.19-7.546,0.563c0-0.06,0.004-0.119,0.004-0.179
			c0-15.83-6.481-30.532-17.745-41.064c0.516-15.411-5.296-30.387-16.485-41.577c-11.189-11.189-26.151-17.002-41.576-16.484
			C286.534,6.48,271.83,0,256.001,0c-15.829,0-30.532,6.481-41.064,17.745c-15.416-0.524-30.385,5.296-41.577,16.485
			c-11.188,11.189-17.001,26.165-16.484,41.577c-11.264,10.531-17.745,25.233-17.745,41.062c0,0.06,0.004,0.119,0.004,0.179
			c-2.471-0.372-4.992-0.563-7.546-0.563c-13.597,0-26.256,5.402-35.513,14.83c-13.22-0.098-25.98,5.011-35.591,14.622
			c-9.611,9.611-14.743,22.379-14.623,35.592c-9.43,9.257-14.83,21.916-14.83,35.514c0,13.598,5.4,26.256,14.83,35.514
			c-0.12,13.212,5.011,25.98,14.623,35.592c9.493,9.492,22.167,14.7,35.574,14.605c9.259,9.44,21.924,14.846,35.529,14.846
			s26.271-5.407,35.529-14.846c0.102,0,0.206,0.001,0.309,0.001c6.761,0,13.313-1.342,19.361-3.889
			c20.082,28.272,34.451,56.957,43.025,85.829c-14.736-10.663-28.87-18.101-42.282-22.219c-31.598-9.699-50.974,1.405-59.711,8.888
			c-22.158,18.974-25.124,54.561-6.61,79.33c12.255,16.396,31.803,25.397,55.109,25.397c0.257,0,0.515-0.001,0.775-0.003
			c18.77-0.16,39.62-6.015,62.211-17.392V512h33.391v-53.305c22.591,11.379,43.441,17.232,62.211,17.392
			c0.259,0.002,0.515,0.003,0.774,0.003c23.304,0,42.854-9.002,55.109-25.397c18.513-24.769,15.548-60.356-6.61-79.33
			c-8.737-7.482-28.114-18.583-59.711-8.888c-13.411,4.117-27.547,11.557-42.282,22.219c8.575-28.875,22.946-57.562,43.031-85.838
			c6.148,2.588,12.811,3.935,19.664,3.897c9.258,9.439,21.925,14.846,35.529,14.846c13.605,0,26.27-5.406,35.529-14.846
			c13.412,0.032,26.081-5.113,35.574-14.606c9.611-9.611,14.743-22.379,14.623-35.592c9.43-9.257,14.83-21.916,14.83-35.514
			C480.968,203.443,475.567,190.788,466.138,181.53z M131.59,240.076c-12.721,0-23.032-10.312-23.032-23.032
			c0-12.72,10.312-23.032,23.032-23.032c12.721,0,23.032,10.312,23.032,23.032C154.622,229.763,144.31,240.076,131.59,240.076z
			 M147.956,430.702c-7.919-10.596-7.18-26.473,1.583-33.976c3.931-3.367,8.842-4.891,14.454-4.891
			c17.519,0,41.868,14.855,64.543,34.873C184.932,450.042,158.541,444.865,147.956,430.702z M362.461,396.727
			c8.763,7.504,9.503,23.381,1.583,33.976c-10.586,14.162-36.97,19.345-80.58-3.995
			C313.402,400.277,346.254,382.851,362.461,396.727z M239.306,320.411h-0.001c-7.865-14.886-17.106-29.653-27.723-44.275
			c3.836-7.246,5.81-15.326,5.736-23.579c6.855-6.731,11.568-15.263,13.637-24.643c2.68,1.328,5.474,2.433,8.351,3.318V320.411z
			 M256.001,144.383c-15.195,0-27.513-12.318-27.513-27.513s12.318-27.513,27.513-27.513c15.195,0,27.513,12.318,27.513,27.513
			S271.196,144.383,256.001,144.383z M272.696,320.411v-89.178c2.877-0.886,5.671-1.99,8.351-3.318
			c2.069,9.38,6.782,17.912,13.637,24.643c-0.075,8.253,1.9,16.333,5.736,23.579C289.803,290.758,280.561,305.525,272.696,320.411z
			 M380.411,240.076c-12.721,0-23.032-10.312-23.032-23.032c0-12.72,10.312-23.032,23.032-23.032
			c12.721,0,23.032,10.312,23.032,23.032C403.443,229.763,393.132,240.076,380.411,240.076z"/>
	</g>
</g>
</svg>