<?xml version="1.0" encoding="iso-8859-1"?>
<!-- Uploaded to: SVG Repo, www.svgrepo.com, Generator: SVG Repo Mixer Tools -->
<svg fill="#000000" height="800px" width="800px" version="1.1" id="Layer_1" xmlns="http://www.w3.org/2000/svg" xmlns:xlink="http://www.w3.org/1999/xlink" 
	 viewBox="0 0 512 512" xml:space="preserve">
<g>
	<g>
		<path d="M256,0c-71.817,0-130.246,58.427-130.246,130.245v16.696h90.358v-16.696c0-21.994,17.893-39.887,39.888-39.887
			s39.888,17.893,39.888,39.887v35.929l-170.133,60.002V512h260.491V130.245C386.246,58.427,327.817,0,256,0z M278.388,394.82
			C269.115,401.992,256,410.505,256,410.505s-13.115-8.513-22.388-15.684c-14.319-11.075-41.844-33.4-41.844-56.219
			c0-20.301,16.456-36.757,36.757-36.757c10.93,0,20.74,4.776,27.474,12.349c6.733-7.573,16.543-12.349,27.474-12.349
			c20.301,0,36.757,16.457,36.757,36.757C320.232,361.42,292.706,383.745,278.388,394.82z"/>
	</g>
</g>
</svg>