<?xml version="1.0" encoding="iso-8859-1"?>
<!-- Uploaded to: SVG Repo, www.svgrepo.com, Generator: SVG Repo Mixer Tools -->
<svg fill="#000000" height="800px" width="800px" version="1.1" id="Layer_1" xmlns="http://www.w3.org/2000/svg" xmlns:xlink="http://www.w3.org/1999/xlink" 
	 viewBox="0 0 512 512" xml:space="preserve">
<g>
	<g>
		<path d="M475.327,52.369l-8.268-8.534l-10.772,5.015c-78.83,36.707-135.765,73.905-179.172,117.064
			c-41.099,40.863-67.131,84.283-92.341,128.885c-0.626,1.107-3.759,2.733-10.529,3.669c-9.189,1.271-21.632,0.855-34.802,0.414
			c-29.392-0.984-62.706-2.099-88.814,13.21C16.561,332.067,0,368.824,0,424.463v11.526l10.778,4.085
			c3.025,1.148,75.022,28.09,155.342,28.09c43.873,0,69.89-5.759,89.804-19.879c20.392-14.461,32.571-35.995,47.911-70.678
			c25.052-56.663,47.691-93.409,69.837-117.191c21.848,50.597,26.989,151.909,26.999,191.056l0.004,16.693h63.874l0.699-15.965
			c4.499-102.743,20.429-163.785,32.06-208.357C505.516,212.389,512,187.547,512,160.224C512,91.019,476.824,53.914,475.327,52.369z
			 M465,235.409c-10.94,41.922-25.563,97.958-31.598,187.947c-0.641-16.414-1.902-38.566-4.389-62.525
			c-5.735-55.285-15.526-96.526-29.168-122.988c22.307-14.779,44.888-19.118,69.735-20.206
			C468.154,223.325,466.612,229.231,465,235.409z M476.689,184.027c-34.039,0.769-69.717,6.26-103.63,31.914
			c-35.118,26.566-66.818,73.646-99.763,148.161c-12.927,29.225-22.603,46.957-36.687,56.944
			c-13.749,9.749-34.172,13.727-70.489,13.727c-56.506,0-109.98-14.958-132.419-22.15c0.992-18.316,4.356-33.565,10.04-45.44
			c5.526-11.547,13.304-20.145,23.778-26.287c17.766-10.417,45.945-9.471,70.807-8.642c32.121,1.079,62.454,2.09,75.519-21.024
			c24.934-44.115,48.678-83.719,86.815-121.637c38.365-38.145,88.663-71.603,157.599-104.737c8.113,12.587,20.35,37.8,20.35,75.367
			C478.609,168.08,477.911,175.933,476.689,184.027z"/>
	</g>
</g>
</svg>