<?xml version="1.0" encoding="iso-8859-1"?>
<!-- Uploaded to: SVG Repo, www.svgrepo.com, Generator: SVG Repo Mixer Tools -->
<svg fill="#000000" height="800px" width="800px" version="1.1" id="Layer_1" xmlns="http://www.w3.org/2000/svg" xmlns:xlink="http://www.w3.org/1999/xlink" 
	 viewBox="0 0 512 512" xml:space="preserve">
<g>
	<g>
		<g>
			<path d="M388.648,190.317v-57.669C388.648,59.507,329.143,0,256,0S123.352,59.507,123.352,132.649v57.669h-48.03v141.005
				C75.322,430.948,156.374,512,256,512s180.678-81.052,180.678-180.678V190.317H388.648z M156.743,132.649
				c0-54.731,44.526-99.258,99.257-99.258s99.257,44.527,99.257,99.258v57.669H156.743V132.649z M256,478.609
				c-81.214,0-147.287-66.073-147.287-147.287V223.708h294.573v107.614h0.001C403.287,412.536,337.214,478.609,256,478.609z"/>
			<path d="M281.458,284.12c-9.025,0-17.798,2.414-25.458,6.856c-7.66-4.442-16.433-6.856-25.458-6.856
				c-27.986,0-50.755,22.768-50.755,50.755c0,26.855,24.184,49.005,45.253,65.3c9.035,6.988,21.35,14.994,21.87,15.33l9.089,5.899
				l9.089-5.899c0.52-0.337,12.836-8.342,21.87-15.33c21.069-16.296,45.253-38.445,45.253-65.3
				C332.212,306.888,309.444,284.12,281.458,284.12z M266.529,373.763c-3.245,2.51-7.099,5.252-10.529,7.623
				c-3.43-2.371-7.286-5.113-10.53-7.623c-26.689-20.643-32.291-32.54-32.291-38.888c0-9.574,7.789-17.363,17.363-17.363
				c5.022,0,9.632,2.074,12.98,5.839L256,337.387l12.477-14.035c3.348-3.765,7.957-5.839,12.98-5.839
				c9.574,0,17.363,7.789,17.363,17.363C298.821,341.222,293.219,353.121,266.529,373.763z"/>
		</g>
	</g>
</g>
</svg>