<?xml version="1.0" encoding="iso-8859-1"?>
<!-- Uploaded to: SVG Repo, www.svgrepo.com, Generator: SVG Repo Mixer Tools -->
<svg fill="#000000" height="800px" width="800px" version="1.1" id="Layer_1" xmlns="http://www.w3.org/2000/svg" xmlns:xlink="http://www.w3.org/1999/xlink" 
	 viewBox="0 0 512 512" xml:space="preserve">
<g>
	<g>
		<path d="M256,0c-73.143,0-132.648,59.507-132.648,132.649v75.579h33.391v-75.579c0-54.731,44.526-99.258,99.257-99.258
			s99.257,44.527,99.257,99.258v75.579h33.391v-75.579C388.648,59.507,329.143,0,256,0z"/>
	</g>
</g>
<g>
	<g>
		<path d="M75.322,190.317v141.005C75.322,430.948,156.374,512,256,512s180.678-81.052,180.678-180.678V190.317H75.322z
			 M279.84,392.312c-9.874,7.637-23.84,16.702-23.84,16.702s-13.966-9.066-23.84-16.702c-15.248-11.794-44.558-35.567-44.558-59.867
			c0-21.618,17.525-39.142,39.142-39.142c11.64,0,22.087,5.086,29.256,13.151c7.17-8.065,17.617-13.151,29.256-13.151
			c21.618,0,39.142,17.525,39.142,39.142C324.399,356.746,295.088,380.519,279.84,392.312z"/>
	</g>
</g>
</svg>