<?xml version="1.0" encoding="iso-8859-1"?>
<!-- Uploaded to: SVG Repo, www.svgrepo.com, Generator: SVG Repo Mixer Tools -->
<svg fill="#000000" version="1.1" id="Layer_1" xmlns="http://www.w3.org/2000/svg" xmlns:xlink="http://www.w3.org/1999/xlink" 
	 viewBox="0 0 512 512" xml:space="preserve">
<g>
	<g>
		<path d="M256.001,318.885c-26.798,0-48.599,21.801-48.599,48.598c0,26.798,21.801,48.599,48.599,48.599
			c26.797,0,48.598-21.801,48.598-48.599C304.598,340.686,282.797,318.885,256.001,318.885z"/>
	</g>
</g>
<g>
	<g>
		<path d="M364.782,222.966v-21.383h67.602V78.532H263.786v123.05h67.603v21.383H220.141v-51.266H117.313v51.266H63.83V512H448.17
			V222.966H364.782z M256.001,449.473c-45.21,0-81.99-36.78-81.99-81.99c0-45.208,36.781-81.989,81.99-81.989
			c45.208,0,81.989,36.781,81.989,81.989C337.99,412.692,301.209,449.473,256.001,449.473z"/>
	</g>
</g>
<g>
	<g>
		<rect x="331.387" width="33.391" height="50.477"/>
	</g>
</g>
<g>
	<g>
		<rect x="266.259" y="7.391" transform="matrix(0.7071 -0.7071 0.7071 0.7071 59.8032 209.6352)" width="33.391" height="50.476"/>
	</g>
</g>
<g>
	<g>
		
			<rect x="387.982" y="15.928" transform="matrix(0.7071 -0.7071 0.7071 0.7071 97.9609 301.7456)" width="50.476" height="33.391"/>
	</g>
</g>
</svg>