<?xml version="1.0" encoding="iso-8859-1"?>
<!-- Uploaded to: SVG Repo, www.svgrepo.com, Generator: SVG Repo Mixer Tools -->
<svg fill="#000000" version="1.1" id="Layer_1" xmlns="http://www.w3.org/2000/svg" xmlns:xlink="http://www.w3.org/1999/xlink" 
	 viewBox="0 0 512 512" xml:space="preserve">
<g>
	<g>
		<g>
			<path d="M364.782,222.966v-21.383h67.602V78.532H263.786v123.05h67.603v21.383H220.141v-51.266H117.313v51.266H63.83V512H448.17
				V222.966H364.782z M297.178,168.191v-56.268h101.815v56.268H297.178z M150.706,205.092h36.045v17.874h-36.045V205.092z
				 M97.222,478.609V256.357h317.557v222.251H97.222z"/>
			<path d="M256.001,285.493c-45.21,0-81.99,36.781-81.99,81.989c0.001,45.21,36.782,81.99,81.99,81.99s81.989-36.78,81.989-81.99
				C337.99,322.274,301.209,285.493,256.001,285.493z M256.001,416.081c-26.798,0-48.599-21.801-48.599-48.599
				c0.001-26.797,21.802-48.598,48.599-48.598s48.598,21.801,48.598,48.598C304.598,394.28,282.797,416.081,256.001,416.081z"/>
			<rect x="331.387" y="0" width="33.391" height="50.477"/>
			
				<rect x="257.716" y="15.933" transform="matrix(0.7071 0.7071 -0.7071 0.7071 105.9472 -190.522)" width="50.476" height="33.391"/>
			
				<rect x="396.524" y="7.386" transform="matrix(0.7071 0.7071 -0.7071 0.7071 144.0976 -282.6352)" width="33.391" height="50.476"/>
		</g>
	</g>
</g>
</svg>