<?xml version="1.0" encoding="iso-8859-1"?>
<!-- Uploaded to: SVG Repo, www.svgrepo.com, Generator: SVG Repo Mixer Tools -->
<svg fill="#000000" height="800px" width="800px" version="1.1" id="Layer_1" xmlns="http://www.w3.org/2000/svg" xmlns:xlink="http://www.w3.org/1999/xlink" 
	 viewBox="0 0 512 512" xml:space="preserve">
<g>
	<g>
		<path d="M255.985,0C167.175,0,94.923,72.925,94.923,162.564c0,36.179,24.985,102.454,74.262,196.982
			c36.048,69.151,72.598,129.177,72.962,129.776L255.983,512l13.839-22.677c0.365-0.599,36.922-60.624,72.978-129.776
			c49.287-94.529,74.278-160.804,74.278-196.983C417.077,72.925,344.811,0,255.985,0z M280.427,221.916
			c-10.117,7.825-24.426,17.113-24.426,17.113s-14.31-9.288-24.427-17.113c-15.624-12.084-45.655-36.443-45.655-61.341
			c0-22.151,17.956-40.106,40.105-40.106c11.927,0,22.63,5.211,29.977,13.474c7.346-8.264,18.051-13.474,29.977-13.474
			c22.15,0,40.106,17.956,40.106,40.106C326.083,185.473,296.051,209.833,280.427,221.916z"/>
	</g>
</g>
</svg>