<?xml version="1.0" encoding="iso-8859-1"?>
<!-- Uploaded to: SVG Repo, www.svgrepo.com, Generator: SVG Repo Mixer Tools -->
<svg fill="#000000" height="800px" width="800px" version="1.1" id="Layer_1" xmlns="http://www.w3.org/2000/svg" xmlns:xlink="http://www.w3.org/1999/xlink" 
	 viewBox="0 0 512 512" xml:space="preserve">
<g>
	<g>
		<path d="M343.352,101.787v-11.41c0-31.623-25.727-57.348-57.348-57.348h-60.006c-31.623,0-57.348,25.726-57.348,57.348v11.41H0
			v377.185h512V101.787H343.352z M202.04,90.377c0-13.21,10.748-23.957,23.957-23.957h60.006c13.211,0,23.957,10.748,23.957,23.957
			v11.41H202.04V90.377z M114.494,445.579H33.391V135.178h81.103v63.433l-62.03,17.149l32.869,118.89l29.161-8.062V445.579z
			 M217.86,204.68l15.073,54.52L108.62,293.569l-15.074-54.52L217.86,204.68z M364.113,445.58H147.886V317.358l126.129-34.871
			l-32.869-118.89l-93.261,25.784v-54.202h216.229v144.833l-58.807-9.209l-17.768,113.465l76.574,11.991V445.58z M415.058,321.785
			l-7.436,47.488l-81.927-12.83l7.436-47.487L415.058,321.785z M478.609,445.58h-81.103v-44.093l37.94,5.941l17.768-113.466
			l-55.708-8.723v-150.06h81.103V445.58z"/>
	</g>
</g>
</svg>