<?xml version="1.0" encoding="iso-8859-1"?>
<!-- Uploaded to: SVG Repo, www.svgrepo.com, Generator: SVG Repo Mixer Tools -->
<svg fill="#000000" height="800px" width="800px" version="1.1" id="Layer_1" xmlns="http://www.w3.org/2000/svg" xmlns:xlink="http://www.w3.org/1999/xlink" 
	 viewBox="0 0 512 512" xml:space="preserve">
<g>
	<g>
		<path d="M341.1,54.733c-45.019,0-84.24,26.366-104.867,65.377c-20.626-39.012-59.845-65.377-104.866-65.377
			C52.353,54.733,0,112.127,0,182.93c0,70.797,39.913,113.643,131.367,178.256c79.911,56.461,104.867,96.081,104.867,96.081
			s11.227-17.814,42.703-46.568c-14.11-11.505-24.211-21.604-32.326-32.081c-16.15-20.848-24.002-43.745-24.002-69.999
			c0-27.804,10.369-53.59,29.196-72.609c19.307-19.504,46.076-30.245,75.375-30.245c20.703,0,40.469,6.78,56.821,18.812
			c16.352-12.032,36.118-18.812,56.821-18.812c10.222,0,20.124,1.336,29.52,3.867c1.419-8.49,2.12-17.351,2.12-26.702
			C472.462,112.127,420.115,54.733,341.1,54.733z"/>
	</g>
</g>
<g>
	<g>
		<path d="M440.822,239.156c-24.393,0-45.645,14.286-56.821,35.424c-11.176-21.138-32.426-35.424-56.821-35.424
			c-42.813,0-71.18,31.098-71.18,69.463c0,38.361,21.626,61.577,71.18,96.587c43.299,30.593,56.821,52.062,56.821,52.062
			s13.523-21.468,56.821-52.062C490.375,370.195,512,346.98,512,308.619C512,270.255,483.635,239.156,440.822,239.156z"/>
	</g>
</g>
</svg>