<?xml version="1.0" encoding="iso-8859-1"?>
<!-- Uploaded to: SVG Repo, www.svgrepo.com, Generator: SVG Repo Mixer Tools -->
<svg fill="#000000" height="800px" width="800px" version="1.1" id="Layer_1" xmlns="http://www.w3.org/2000/svg" xmlns:xlink="http://www.w3.org/1999/xlink" 
	 viewBox="0 0 512 512" xml:space="preserve">
<g>
	<g>
		<path d="M395.242,230.948c-23.26-30.512-50.792-53.797-79.175-67.843c2.355-5.106,6.687-10.173,12.694-16.938
			c11.187-12.6,25.111-28.28,25.111-53.748c0-20.606-9.631-38.994-24.616-50.936V0h-33.391v27.69
			c-2.339-0.256-4.712-0.396-7.118-0.396c-11.62,0-22.882,3.076-32.748,8.826c-9.866-5.75-21.128-8.826-32.748-8.826
			c-2.405,0-4.778,0.141-7.118,0.396V0h-33.391v41.481c-14.985,11.942-24.616,30.33-24.616,50.936
			c0,25.468,13.923,41.148,25.111,53.748c6.007,6.765,10.34,11.833,12.694,16.938c-28.384,14.047-55.916,37.331-79.175,67.843
			C73.352,287.881,49.45,363.159,49.45,442.915v7.589l5.718,4.99c1.592,1.389,33.16,28.434,75.809,30.591
			c8.041-65.449,25.849-123.117,49.253-157.956l27.718,18.62c-20.621,30.697-36.914,85.225-44.148,146.134
			C181.186,501.938,210.687,512,255.999,512s74.813-10.062,92.2-19.117c-7.234-60.91-23.528-115.437-44.148-146.134l27.718-18.62
			c23.404,34.839,41.212,92.506,49.253,157.956c42.646-2.158,74.218-29.203,75.809-30.591l5.718-4.99v-7.589
			C462.549,363.161,438.647,287.882,395.242,230.948z"/>
	</g>
</g>
</svg>