<?xml version="1.0" encoding="iso-8859-1"?>
<!-- Uploaded to: SVG Repo, www.svgrepo.com, Generator: SVG Repo Mixer Tools -->
<svg fill="#000000" height="800px" width="800px" version="1.1" id="Layer_1" xmlns="http://www.w3.org/2000/svg" xmlns:xlink="http://www.w3.org/1999/xlink" 
	 viewBox="0 0 512 512" xml:space="preserve">
<g>
	<g>
		<path d="M416.278,21.342v60.212h-33.391V21.342h-62.33v60.212h-33.391V21.342h-62.33v60.212h-33.391V21.342h-62.33v60.212H95.722
			V21.342H0v469.316h512V21.342H416.278z M478.609,457.268H33.391v-294.89h445.217V457.268z"/>
	</g>
</g>
<g>
	<g>
		<path d="M294.714,233.266c-15.402,0-29.226,6.729-38.714,17.401c-9.488-10.671-23.312-17.401-38.714-17.401
			c-28.605,0-51.794,23.189-51.794,51.794c0,32.156,38.785,63.614,58.962,79.219C237.519,374.385,256,386.379,256,386.379
			s18.481-11.995,31.546-22.101c20.177-15.606,58.962-47.064,58.962-79.219C346.508,256.455,323.319,233.266,294.714,233.266z"/>
	</g>
</g>
</svg>