<?xml version="1.0" encoding="UTF-8"?>
<svg id="Ebene_2" xmlns="http://www.w3.org/2000/svg" viewBox="0 0 1063 709">
  <defs>
    <style>
      .cls-1 {
        fill: none;
        stroke: #000;
        stroke-miterlimit: 10;
      }
    </style>
  </defs>
  <line class="cls-1" x1="531.5" y1="700.02" x2="531.5" y2="423.66"/>
  <line class="cls-1" x1="509.81" y1="699.34" x2="527.16" y2="423.53"/>
  <line class="cls-1" x1="488.2" y1="697.3" x2="522.84" y2="423.12"/>
  <line class="cls-1" x1="466.77" y1="693.9" x2="518.55" y2="422.44"/>
  <line class="cls-1" x1="445.59" y1="689.17" x2="514.32" y2="421.49"/>
  <line class="cls-1" x1="424.75" y1="683.11" x2="510.15" y2="420.28"/>
  <line class="cls-1" x1="404.33" y1="675.76" x2="506.07" y2="418.81"/>
  <line class="cls-1" x1="384.42" y1="667.15" x2="502.08" y2="417.09"/>
  <line class="cls-1" x1="365.08" y1="657.29" x2="498.22" y2="415.12"/>
  <line class="cls-1" x1="346.4" y1="646.25" x2="494.48" y2="412.91"/>
  <line class="cls-1" x1="328.45" y1="634.05" x2="490.89" y2="410.47"/>
  <line class="cls-1" x1="311.3" y1="620.75" x2="487.46" y2="407.81"/>
  <line class="cls-1" x1="295.03" y1="606.39" x2="484.21" y2="404.94"/>
  <line class="cls-1" x1="279.68" y1="591.05" x2="481.14" y2="401.87"/>
  <line class="cls-1" x1="265.33" y1="574.77" x2="478.27" y2="398.61"/>
  <line class="cls-1" x1="252.03" y1="557.62" x2="475.61" y2="395.18"/>
  <line class="cls-1" x1="239.83" y1="539.67" x2="473.17" y2="391.59"/>
  <line class="cls-1" x1="228.78" y1="520.99" x2="470.96" y2="387.86"/>
  <line class="cls-1" x1="218.93" y1="501.66" x2="468.99" y2="383.99"/>
  <line class="cls-1" x1="210.31" y1="481.74" x2="467.26" y2="380.01"/>
  <line class="cls-1" x1="202.96" y1="461.32" x2="465.79" y2="375.92"/>
  <line class="cls-1" x1="196.91" y1="440.48" x2="464.58" y2="371.76"/>
  <line class="cls-1" x1="192.17" y1="419.3" x2="463.63" y2="367.52"/>
  <line class="cls-1" x1="188.78" y1="397.87" x2="462.96" y2="363.23"/>
  <line class="cls-1" x1="186.73" y1="376.27" x2="462.55" y2="358.91"/>
  <line class="cls-1" x1="186.05" y1="354.57" x2="462.41" y2="354.57"/>
  <line class="cls-1" x1="186.73" y1="332.88" x2="462.55" y2="350.24"/>
  <line class="cls-1" x1="188.78" y1="311.28" x2="462.96" y2="345.92"/>
  <line class="cls-1" x1="192.17" y1="289.84" x2="463.63" y2="341.63"/>
  <line class="cls-1" x1="196.91" y1="268.67" x2="464.58" y2="337.39"/>
  <line class="cls-1" x1="202.96" y1="247.83" x2="465.79" y2="333.22"/>
  <line class="cls-1" x1="210.31" y1="227.41" x2="467.26" y2="329.14"/>
  <line class="cls-1" x1="218.93" y1="207.49" x2="468.99" y2="325.16"/>
  <line class="cls-1" x1="228.78" y1="188.15" x2="470.96" y2="321.29"/>
  <line class="cls-1" x1="239.83" y1="169.47" x2="473.17" y2="317.55"/>
  <line class="cls-1" x1="252.03" y1="151.53" x2="475.61" y2="313.96"/>
  <line class="cls-1" x1="265.33" y1="134.38" x2="478.27" y2="310.54"/>
  <line class="cls-1" x1="279.68" y1="118.1" x2="481.14" y2="307.28"/>
  <line class="cls-1" x1="295.03" y1="102.75" x2="484.21" y2="304.21"/>
  <line class="cls-1" x1="311.3" y1="88.4" x2="487.46" y2="301.34"/>
  <line class="cls-1" x1="328.45" y1="75.1" x2="490.89" y2="298.68"/>
  <line class="cls-1" x1="346.4" y1="62.9" x2="494.48" y2="296.24"/>
  <line class="cls-1" x1="365.08" y1="51.86" x2="498.22" y2="294.03"/>
  <line class="cls-1" x1="384.42" y1="42" x2="502.08" y2="292.06"/>
  <line class="cls-1" x1="404.33" y1="33.39" x2="506.07" y2="290.34"/>
  <line class="cls-1" x1="424.75" y1="26.04" x2="510.15" y2="288.87"/>
  <line class="cls-1" x1="445.59" y1="19.98" x2="514.32" y2="287.66"/>
  <line class="cls-1" x1="466.77" y1="15.25" x2="518.55" y2="286.71"/>
  <line class="cls-1" x1="488.2" y1="11.85" x2="522.84" y2="286.03"/>
  <line class="cls-1" x1="509.81" y1="9.81" x2="527.16" y2="285.62"/>
  <line class="cls-1" x1="531.5" y1="9.13" x2="531.5" y2="285.49"/>
  <line class="cls-1" x1="553.19" y1="9.81" x2="535.84" y2="285.62"/>
  <line class="cls-1" x1="574.8" y1="11.85" x2="540.16" y2="286.03"/>
  <line class="cls-1" x1="596.23" y1="15.25" x2="544.45" y2="286.71"/>
  <line class="cls-1" x1="617.41" y1="19.98" x2="548.68" y2="287.66"/>
  <line class="cls-1" x1="638.25" y1="26.04" x2="552.85" y2="288.87"/>
  <line class="cls-1" x1="658.67" y1="33.39" x2="556.93" y2="290.34"/>
  <line class="cls-1" x1="678.58" y1="42" x2="560.92" y2="292.06"/>
  <line class="cls-1" x1="697.92" y1="51.86" x2="564.78" y2="294.03"/>
  <line class="cls-1" x1="716.6" y1="62.9" x2="568.52" y2="296.24"/>
  <line class="cls-1" x1="734.55" y1="75.1" x2="572.11" y2="298.68"/>
  <line class="cls-1" x1="751.7" y1="88.4" x2="575.54" y2="301.34"/>
  <line class="cls-1" x1="767.97" y1="102.75" x2="578.79" y2="304.21"/>
  <line class="cls-1" x1="783.32" y1="118.1" x2="581.86" y2="307.28"/>
  <line class="cls-1" x1="797.67" y1="134.38" x2="584.73" y2="310.54"/>
  <line class="cls-1" x1="810.97" y1="151.53" x2="587.39" y2="313.96"/>
  <line class="cls-1" x1="823.17" y1="169.47" x2="589.83" y2="317.55"/>
  <line class="cls-1" x1="834.22" y1="188.15" x2="592.04" y2="321.29"/>
  <line class="cls-1" x1="844.07" y1="207.49" x2="594.01" y2="325.16"/>
  <line class="cls-1" x1="852.69" y1="227.41" x2="595.74" y2="329.14"/>
  <line class="cls-1" x1="860.04" y1="247.83" x2="597.21" y2="333.22"/>
  <line class="cls-1" x1="866.09" y1="268.67" x2="598.42" y2="337.39"/>
  <line class="cls-1" x1="870.83" y1="289.84" x2="599.37" y2="341.63"/>
  <line class="cls-1" x1="874.22" y1="311.28" x2="600.04" y2="345.92"/>
  <line class="cls-1" x1="876.27" y1="332.88" x2="600.45" y2="350.24"/>
  <line class="cls-1" x1="876.95" y1="354.57" x2="600.59" y2="354.57"/>
  <line class="cls-1" x1="876.27" y1="376.27" x2="600.45" y2="358.91"/>
  <line class="cls-1" x1="874.22" y1="397.87" x2="600.04" y2="363.23"/>
  <line class="cls-1" x1="870.83" y1="419.3" x2="599.36" y2="367.52"/>
  <line class="cls-1" x1="866.09" y1="440.48" x2="598.42" y2="371.76"/>
  <line class="cls-1" x1="860.04" y1="461.32" x2="597.21" y2="375.92"/>
  <line class="cls-1" x1="852.69" y1="481.74" x2="595.74" y2="380.01"/>
  <line class="cls-1" x1="844.07" y1="501.66" x2="594.01" y2="383.99"/>
  <line class="cls-1" x1="834.22" y1="520.99" x2="592.04" y2="387.86"/>
  <line class="cls-1" x1="823.17" y1="539.67" x2="589.83" y2="391.59"/>
  <line class="cls-1" x1="810.97" y1="557.62" x2="587.39" y2="395.18"/>
  <line class="cls-1" x1="797.67" y1="574.77" x2="584.73" y2="398.61"/>
  <line class="cls-1" x1="783.32" y1="591.05" x2="581.86" y2="401.87"/>
  <line class="cls-1" x1="767.97" y1="606.39" x2="578.79" y2="404.94"/>
  <line class="cls-1" x1="751.7" y1="620.75" x2="575.54" y2="407.81"/>
  <line class="cls-1" x1="734.55" y1="634.05" x2="572.11" y2="410.47"/>
  <line class="cls-1" x1="716.6" y1="646.24" x2="568.52" y2="412.91"/>
  <line class="cls-1" x1="697.92" y1="657.29" x2="564.78" y2="415.12"/>
  <line class="cls-1" x1="678.58" y1="667.14" x2="560.92" y2="417.09"/>
  <line class="cls-1" x1="658.67" y1="675.76" x2="556.93" y2="418.81"/>
  <line class="cls-1" x1="638.25" y1="683.11" x2="552.85" y2="420.28"/>
  <line class="cls-1" x1="617.41" y1="689.17" x2="548.68" y2="421.49"/>
  <line class="cls-1" x1="596.23" y1="693.9" x2="544.45" y2="422.44"/>
  <line class="cls-1" x1="574.8" y1="697.3" x2="540.16" y2="423.12"/>
  <line class="cls-1" x1="553.19" y1="699.34" x2="535.84" y2="423.53"/>
</svg>