<svg id="visual" viewBox="0 0 900 675" width="900" height="675" xmlns="http://www.w3.org/2000/svg" xmlns:xlink="http://www.w3.org/1999/xlink" version="1.1"><g stroke-width="1" stroke-linejoin="bevel"><path d="M460 304.5L535 290.1L431 262.1Z" fill="#980fd3" stroke="#980fd3"></path><path d="M535 290.1L452 145.8L431 262.1Z" fill="#7311c4" stroke="#7311c4"></path><path d="M460 304.5L544 358.5L535 290.1Z" fill="#c60ce4" stroke="#c60ce4"></path><path d="M380 191.8L371 232.1L431 262.1Z" fill="#7c10c8" stroke="#7c10c8"></path><path d="M431 262.1L347 357.5L460 304.5Z" fill="#a10fd7" stroke="#a10fd7"></path><path d="M452 145.8L380 191.8L431 262.1Z" fill="#6911c0" stroke="#6911c0"></path><path d="M609 171.8L563 140.8L535 290.1Z" fill="#980fd3" stroke="#980fd3"></path><path d="M535 290.1L563 140.8L452 145.8Z" fill="#6911c0" stroke="#6911c0"></path><path d="M544 358.5L619 309.5L535 290.1Z" fill="#a10fd7" stroke="#a10fd7"></path><path d="M619 309.5L631 237.1L535 290.1Z" fill="#bd0de1" stroke="#bd0de1"></path><path d="M631 237.1L609 171.8L535 290.1Z" fill="#bd0de1" stroke="#bd0de1"></path><path d="M563 140.8L481 93.4L452 145.8Z" fill="#8510cc" stroke="#8510cc"></path><path d="M452 145.8L357 99.4L380 191.8Z" fill="#7311c4" stroke="#7311c4"></path><path d="M371 232.1L347 357.5L431 262.1Z" fill="#aa0eda" stroke="#aa0eda"></path><path d="M438 446.9L531 447.9L544 358.5Z" fill="#b40ddd" stroke="#b40ddd"></path><path d="M347 357.5L360 390.9L460 304.5Z" fill="#8f10cf" stroke="#8f10cf"></path><path d="M438 446.9L544 358.5L460 304.5Z" fill="#7c10c8" stroke="#7c10c8"></path><path d="M544 358.5L626 398.9L619 309.5Z" fill="#bd0de1" stroke="#bd0de1"></path><path d="M531 447.9L626 398.9L544 358.5Z" fill="#a10fd7" stroke="#a10fd7"></path><path d="M619 309.5L696 345.5L631 237.1Z" fill="#8f10cf" stroke="#8f10cf"></path><path d="M360 390.9L438 446.9L460 304.5Z" fill="#6911c0" stroke="#6911c0"></path><path d="M481 93.4L357 99.4L452 145.8Z" fill="#8f10cf" stroke="#8f10cf"></path><path d="M253 191.8L274 283.1L371 232.1Z" fill="#c60ce4" stroke="#c60ce4"></path><path d="M371 232.1L274 283.1L347 357.5Z" fill="#8f10cf" stroke="#8f10cf"></path><path d="M253 191.8L371 232.1L380 191.8Z" fill="#aa0eda" stroke="#aa0eda"></path><path d="M347 357.5L254 417.9L360 390.9Z" fill="#aa0eda" stroke="#aa0eda"></path><path d="M614 53.4L565 46.4L563 140.8Z" fill="#8f10cf" stroke="#8f10cf"></path><path d="M563 140.8L565 46.4L481 93.4Z" fill="#c60ce4" stroke="#c60ce4"></path><path d="M481 93.4L449 0L357 99.4Z" fill="#b40ddd" stroke="#b40ddd"></path><path d="M438 446.9L469 475.3L531 447.9Z" fill="#a10fd7" stroke="#a10fd7"></path><path d="M469 555.6L469 475.3L438 446.9Z" fill="#6911c0" stroke="#6911c0"></path><path d="M626 398.9L696 345.5L619 309.5Z" fill="#c60ce4" stroke="#c60ce4"></path><path d="M736 157.8L614 53.4L609 171.8Z" fill="#7c10c8" stroke="#7c10c8"></path><path d="M609 171.8L614 53.4L563 140.8Z" fill="#7311c4" stroke="#7311c4"></path><path d="M469 475.3L546 482.3L531 447.9Z" fill="#a10fd7" stroke="#a10fd7"></path><path d="M531 447.9L546 482.3L626 398.9Z" fill="#8510cc" stroke="#8510cc"></path><path d="M626 398.9L702 383.9L696 345.5Z" fill="#aa0eda" stroke="#aa0eda"></path><path d="M736 157.8L609 171.8L631 237.1Z" fill="#bd0de1" stroke="#bd0de1"></path><path d="M357 99.4L292 118.4L380 191.8Z" fill="#c60ce4" stroke="#c60ce4"></path><path d="M194 240.1L257 314.5L274 283.1Z" fill="#a10fd7" stroke="#a10fd7"></path><path d="M274 283.1L257 314.5L347 357.5Z" fill="#8f10cf" stroke="#8f10cf"></path><path d="M360 390.9L325 501.3L438 446.9Z" fill="#980fd3" stroke="#980fd3"></path><path d="M292 118.4L253 191.8L380 191.8Z" fill="#b40ddd" stroke="#b40ddd"></path><path d="M655 508.3L702 383.9L626 398.9Z" fill="#7311c4" stroke="#7311c4"></path><path d="M550 0L481 93.4L565 46.4Z" fill="#c60ce4" stroke="#c60ce4"></path><path d="M550 0L449 0L481 93.4Z" fill="#6911c0" stroke="#6911c0"></path><path d="M357 99.4L296 0L292 118.4Z" fill="#8f10cf" stroke="#8f10cf"></path><path d="M784 321.5L746 230.1L696 345.5Z" fill="#b40ddd" stroke="#b40ddd"></path><path d="M696 345.5L746 230.1L631 237.1Z" fill="#bd0de1" stroke="#bd0de1"></path><path d="M632 0L550 0L565 46.4Z" fill="#bd0de1" stroke="#bd0de1"></path><path d="M746 230.1L736 157.8L631 237.1Z" fill="#6911c0" stroke="#6911c0"></path><path d="M449 0L356 0L357 99.4Z" fill="#b40ddd" stroke="#b40ddd"></path><path d="M180 361.5L254 417.9L257 314.5Z" fill="#7c10c8" stroke="#7c10c8"></path><path d="M257 314.5L254 417.9L347 357.5Z" fill="#b40ddd" stroke="#b40ddd"></path><path d="M684 0L632 0L614 53.4Z" fill="#8f10cf" stroke="#8f10cf"></path><path d="M614 53.4L632 0L565 46.4Z" fill="#a10fd7" stroke="#a10fd7"></path><path d="M184 151.8L194 240.1L253 191.8Z" fill="#b40ddd" stroke="#b40ddd"></path><path d="M253 191.8L194 240.1L274 283.1Z" fill="#aa0eda" stroke="#aa0eda"></path><path d="M184 151.8L253 191.8L292 118.4Z" fill="#8510cc" stroke="#8510cc"></path><path d="M254 417.9L325 501.3L360 390.9Z" fill="#8510cc" stroke="#8510cc"></path><path d="M469 475.3L469 555.6L546 482.3Z" fill="#8510cc" stroke="#8510cc"></path><path d="M789 161.8L750 102.4L736 157.8Z" fill="#7311c4" stroke="#7311c4"></path><path d="M736 157.8L750 102.4L614 53.4Z" fill="#980fd3" stroke="#980fd3"></path><path d="M702 383.9L784 321.5L696 345.5Z" fill="#8510cc" stroke="#8510cc"></path><path d="M746 230.1L789 161.8L736 157.8Z" fill="#aa0eda" stroke="#aa0eda"></path><path d="M325 501.3L469 555.6L438 446.9Z" fill="#8510cc" stroke="#8510cc"></path><path d="M546 482.3L655 508.3L626 398.9Z" fill="#8f10cf" stroke="#8f10cf"></path><path d="M603 586.6L655 508.3L546 482.3Z" fill="#c60ce4" stroke="#c60ce4"></path><path d="M702 383.9L839 426.9L784 321.5Z" fill="#6911c0" stroke="#6911c0"></path><path d="M842 291.1L789 161.8L746 230.1Z" fill="#aa0eda" stroke="#aa0eda"></path><path d="M356 0L296 0L357 99.4Z" fill="#bd0de1" stroke="#bd0de1"></path><path d="M750 102.4L684 0L614 53.4Z" fill="#6911c0" stroke="#6911c0"></path><path d="M837 0L684 0L750 102.4Z" fill="#980fd3" stroke="#980fd3"></path><path d="M147 46.4L184 151.8L292 118.4Z" fill="#c60ce4" stroke="#c60ce4"></path><path d="M469 555.6L532 575.6L546 482.3Z" fill="#a10fd7" stroke="#a10fd7"></path><path d="M163 382.9L180 361.5L95 300.5Z" fill="#c60ce4" stroke="#c60ce4"></path><path d="M194 240.1L180 361.5L257 314.5Z" fill="#8f10cf" stroke="#8f10cf"></path><path d="M254 417.9L272 515.3L325 501.3Z" fill="#aa0eda" stroke="#aa0eda"></path><path d="M709 558.6L722 494.3L655 508.3Z" fill="#bd0de1" stroke="#bd0de1"></path><path d="M655 508.3L722 494.3L702 383.9Z" fill="#b40ddd" stroke="#b40ddd"></path><path d="M216 492.3L272 515.3L254 417.9Z" fill="#980fd3" stroke="#980fd3"></path><path d="M325 501.3L343 601.6L469 555.6Z" fill="#6911c0" stroke="#6911c0"></path><path d="M469 555.6L418 675L532 575.6Z" fill="#bd0de1" stroke="#bd0de1"></path><path d="M95 300.5L180 361.5L194 240.1Z" fill="#c60ce4" stroke="#c60ce4"></path><path d="M180 361.5L163 382.9L254 417.9Z" fill="#8f10cf" stroke="#8f10cf"></path><path d="M532 575.6L603 586.6L546 482.3Z" fill="#a10fd7" stroke="#a10fd7"></path><path d="M900 348.5L842 291.1L784 321.5Z" fill="#bd0de1" stroke="#bd0de1"></path><path d="M784 321.5L842 291.1L746 230.1Z" fill="#7311c4" stroke="#7311c4"></path><path d="M163 382.9L216 492.3L254 417.9Z" fill="#aa0eda" stroke="#aa0eda"></path><path d="M900 206.8L836 118.4L789 161.8Z" fill="#c60ce4" stroke="#c60ce4"></path><path d="M789 161.8L836 118.4L750 102.4Z" fill="#aa0eda" stroke="#aa0eda"></path><path d="M603 586.6L709 558.6L655 508.3Z" fill="#bd0de1" stroke="#bd0de1"></path><path d="M722 494.3L814 468.3L702 383.9Z" fill="#8510cc" stroke="#8510cc"></path><path d="M270 599.6L343 601.6L272 515.3Z" fill="#aa0eda" stroke="#aa0eda"></path><path d="M272 515.3L343 601.6L325 501.3Z" fill="#8510cc" stroke="#8510cc"></path><path d="M532 575.6L574 675L603 586.6Z" fill="#aa0eda" stroke="#aa0eda"></path><path d="M821 552.6L814 468.3L722 494.3Z" fill="#b40ddd" stroke="#b40ddd"></path><path d="M814 468.3L839 426.9L702 383.9Z" fill="#7c10c8" stroke="#7c10c8"></path><path d="M296 0L185 0L292 118.4Z" fill="#6911c0" stroke="#6911c0"></path><path d="M78 159.8L95 300.5L194 240.1Z" fill="#b40ddd" stroke="#b40ddd"></path><path d="M78 159.8L194 240.1L184 151.8Z" fill="#7c10c8" stroke="#7c10c8"></path><path d="M163 382.9L118 467.3L216 492.3Z" fill="#8510cc" stroke="#8510cc"></path><path d="M185 0L147 46.4L292 118.4Z" fill="#a10fd7" stroke="#a10fd7"></path><path d="M176 563.6L272 515.3L216 492.3Z" fill="#bd0de1" stroke="#bd0de1"></path><path d="M176 563.6L270 599.6L272 515.3Z" fill="#a10fd7" stroke="#a10fd7"></path><path d="M842 291.1L900 206.8L789 161.8Z" fill="#aa0eda" stroke="#aa0eda"></path><path d="M900 348.5L900 251.1L842 291.1Z" fill="#7311c4" stroke="#7311c4"></path><path d="M900 251.1L900 206.8L842 291.1Z" fill="#980fd3" stroke="#980fd3"></path><path d="M66 108.4L78 159.8L184 151.8Z" fill="#7311c4" stroke="#7311c4"></path><path d="M900 434.9L900 348.5L839 426.9Z" fill="#7311c4" stroke="#7311c4"></path><path d="M839 426.9L900 348.5L784 321.5Z" fill="#7c10c8" stroke="#7c10c8"></path><path d="M330 675L418 675L343 601.6Z" fill="#7311c4" stroke="#7311c4"></path><path d="M343 601.6L418 675L469 555.6Z" fill="#8f10cf" stroke="#8f10cf"></path><path d="M603 586.6L616 675L709 558.6Z" fill="#aa0eda" stroke="#aa0eda"></path><path d="M51 434.9L118 467.3L163 382.9Z" fill="#aa0eda" stroke="#aa0eda"></path><path d="M418 675L574 675L532 575.6Z" fill="#bd0de1" stroke="#bd0de1"></path><path d="M709 558.6L821 552.6L722 494.3Z" fill="#aa0eda" stroke="#aa0eda"></path><path d="M836 118.4L837 0L750 102.4Z" fill="#7311c4" stroke="#7311c4"></path><path d="M900 80.4L837 0L836 118.4Z" fill="#c60ce4" stroke="#c60ce4"></path><path d="M78 159.8L51 280.1L95 300.5Z" fill="#bd0de1" stroke="#bd0de1"></path><path d="M95 300.5L51 434.9L163 382.9Z" fill="#6911c0" stroke="#6911c0"></path><path d="M574 675L616 675L603 586.6Z" fill="#b40ddd" stroke="#b40ddd"></path><path d="M118 467.3L176 563.6L216 492.3Z" fill="#bd0de1" stroke="#bd0de1"></path><path d="M286 675L330 675L343 601.6Z" fill="#8510cc" stroke="#8510cc"></path><path d="M900 206.8L900 80.4L836 118.4Z" fill="#8510cc" stroke="#8510cc"></path><path d="M809 675L821 552.6L709 558.6Z" fill="#c60ce4" stroke="#c60ce4"></path><path d="M814 468.3L900 434.9L839 426.9Z" fill="#6911c0" stroke="#6911c0"></path><path d="M185 0L121 0L147 46.4Z" fill="#6911c0" stroke="#6911c0"></path><path d="M147 46.4L66 108.4L184 151.8Z" fill="#bd0de1" stroke="#bd0de1"></path><path d="M121 0L66 108.4L147 46.4Z" fill="#8f10cf" stroke="#8f10cf"></path><path d="M78 159.8L0 215.1L51 280.1Z" fill="#8f10cf" stroke="#8f10cf"></path><path d="M900 533.3L900 434.9L814 468.3Z" fill="#a10fd7" stroke="#a10fd7"></path><path d="M286 675L343 601.6L270 599.6Z" fill="#6911c0" stroke="#6911c0"></path><path d="M211 675L286 675L270 599.6Z" fill="#aa0eda" stroke="#aa0eda"></path><path d="M0 394.9L51 434.9L95 300.5Z" fill="#bd0de1" stroke="#bd0de1"></path><path d="M118 467.3L88 601.6L176 563.6Z" fill="#aa0eda" stroke="#aa0eda"></path><path d="M616 675L724 675L709 558.6Z" fill="#7c10c8" stroke="#7c10c8"></path><path d="M900 80.4L900 0L837 0Z" fill="#aa0eda" stroke="#aa0eda"></path><path d="M0 176.8L78 159.8L66 108.4Z" fill="#aa0eda" stroke="#aa0eda"></path><path d="M0 176.8L0 215.1L78 159.8Z" fill="#a10fd7" stroke="#a10fd7"></path><path d="M51 280.1L0 303.5L95 300.5Z" fill="#8f10cf" stroke="#8f10cf"></path><path d="M0 215.1L0 303.5L51 280.1Z" fill="#a10fd7" stroke="#a10fd7"></path><path d="M0 84.4L0 176.8L66 108.4Z" fill="#980fd3" stroke="#980fd3"></path><path d="M900 616.6L900 533.3L821 552.6Z" fill="#6911c0" stroke="#6911c0"></path><path d="M821 552.6L900 533.3L814 468.3Z" fill="#8f10cf" stroke="#8f10cf"></path><path d="M117 675L211 675L176 563.6Z" fill="#8f10cf" stroke="#8f10cf"></path><path d="M176 563.6L211 675L270 599.6Z" fill="#aa0eda" stroke="#aa0eda"></path><path d="M0 303.5L0 394.9L95 300.5Z" fill="#8510cc" stroke="#8510cc"></path><path d="M0 534.3L88 601.6L118 467.3Z" fill="#bd0de1" stroke="#bd0de1"></path><path d="M0 0L0 84.4L66 108.4Z" fill="#6911c0" stroke="#6911c0"></path><path d="M724 675L809 675L709 558.6Z" fill="#bd0de1" stroke="#bd0de1"></path><path d="M0 534.3L118 467.3L51 434.9Z" fill="#a10fd7" stroke="#a10fd7"></path><path d="M809 675L900 616.6L821 552.6Z" fill="#7c10c8" stroke="#7c10c8"></path><path d="M121 0L0 0L66 108.4Z" fill="#8f10cf" stroke="#8f10cf"></path><path d="M0 675L117 675L88 601.6Z" fill="#7c10c8" stroke="#7c10c8"></path><path d="M88 601.6L117 675L176 563.6Z" fill="#8510cc" stroke="#8510cc"></path><path d="M0 394.9L0 534.3L51 434.9Z" fill="#8f10cf" stroke="#8f10cf"></path><path d="M0 534.3L0 578.6L88 601.6Z" fill="#8510cc" stroke="#8510cc"></path><path d="M809 675L900 675L900 616.6Z" fill="#8510cc" stroke="#8510cc"></path><path d="M0 578.6L0 675L88 601.6Z" fill="#c60ce4" stroke="#c60ce4"></path></g></svg>